<svg t="1662371894656" class="icon" viewBox="0 0 1024 1024" version="1.1" xmlns="http://www.w3.org/2000/svg" p-id="1812" width="200" height="200"><path d="M725 686.18a50 50 0 1 1-50 50 50 50 0 0 1 50-50m0-40a90 90 0 1 0 90 90 90.1 90.1 0 0 0-90-90z" p-id="1813"></path><path d="M959 713.94a235.54 235.54 0 0 0-4.05-26.64 12.62 12.62 0 0 0-14.82-9.75 60 60 0 0 1-56.79-98.3 12.62 12.62 0 0 0-1-17.69 234.86 234.86 0 0 0-59.55-39.16 234.06 234.06 0 0 0-25.09-9.78 12.63 12.63 0 0 0-15.85 8 60 60 0 0 1-113.56 0 12.63 12.63 0 0 0-15.85-8 234.14 234.14 0 0 0-63.61 32.06 237.26 237.26 0 0 0-21 16.87 12.63 12.63 0 0 0-1 17.69 60 60 0 0 1-56.8 98.31 12.62 12.62 0 0 0-14.82 9.75 235.54 235.54 0 0 0-4 26.64q-1 11-1 22.24t1 22.24a236.06 236.06 0 0 0 4 26.65 12.62 12.62 0 0 0 14.82 9.74 60 60 0 0 1 56.8 98.31 12.63 12.63 0 0 0 1 17.69A235.43 235.43 0 0 0 627.28 950a232 232 0 0 0 25.09 9.78 12.63 12.63 0 0 0 15.85-8 60 60 0 0 1 113.56 0 12.63 12.63 0 0 0 15.85 8 232 232 0 0 0 25.09-9.78 234.86 234.86 0 0 0 59.55-39.16 12.62 12.62 0 0 0 1-17.69 60 60 0 0 1 56.79-98.3 12.62 12.62 0 0 0 14.82-9.74 236.06 236.06 0 0 0 4.12-26.69q1-11 1-22.24t-1-22.24z m-117 89.74a99.79 99.79 0 0 0-7.84 82.71 12.59 12.59 0 0 1-5.16 14.77q-6.4 4.05-13.1 7.58a12.57 12.57 0 0 1-15.35-3 99.86 99.86 0 0 0-151.12 0 12.57 12.57 0 0 1-15.35 3q-6.69-3.53-13.1-7.58a12.57 12.57 0 0 1-5.06-14.77 99.86 99.86 0 0 0-75.52-130.86 12.58 12.58 0 0 1-10.26-11.8q-0.14-3.73-0.14-7.55t0.14-7.55a12.59 12.59 0 0 1 10.26-11.8A99.86 99.86 0 0 0 615.93 586a12.57 12.57 0 0 1 5.07-14.8q6.4-4.05 13.1-7.58a12.57 12.57 0 0 1 15.35 3 99.86 99.86 0 0 0 151.12 0 12.57 12.57 0 0 1 15.35-3q6.69 3.54 13.1 7.58a12.58 12.58 0 0 1 5.06 14.8 99.86 99.86 0 0 0 75.52 130.83 12.58 12.58 0 0 1 10.26 11.8q0.14 3.78 0.14 7.55t-0.14 7.56a12.56 12.56 0 0 1-10.26 11.79 99.82 99.82 0 0 0-67.68 48.15z" p-id="1814"></path><path d="M392.71 561.33m-20 0a20 20 0 1 0 40 0 20 20 0 1 0-40 0Z" p-id="1815"></path><path d="M392.71 701.33m-20 0a20 20 0 1 0 40 0 20 20 0 1 0-40 0Z" p-id="1816"></path><path d="M392.71 800m-20 0a20 20 0 1 0 40 0 20 20 0 1 0-40 0Z" p-id="1817"></path><path d="M392.71 940m-20 0a20 20 0 1 0 40 0 20 20 0 1 0-40 0Z" p-id="1818"></path><path d="M824 104a20.27 20.27 0 0 1 20 20v60a20.27 20.27 0 0 1-20 20H124a20.27 20.27 0 0 1-20-20v-60a20.27 20.27 0 0 1 20-20h700m0-40H124a60.18 60.18 0 0 0-60 60v60a60.18 60.18 0 0 0 60 60h700a60.18 60.18 0 0 0 60-60v-60a60.18 60.18 0 0 0-60-60zM900 342.67a20.27 20.27 0 0 1 20 20v60a20.27 20.27 0 0 1-20 20H332.07a20.27 20.27 0 0 1-20-20v-60a20.27 20.27 0 0 1 20-20H900m0-40H332.07a60.18 60.18 0 0 0-60 60v60a60.18 60.18 0 0 0 60 60H900a60.18 60.18 0 0 0 60-60v-60a60.18 60.18 0 0 0-60-60z" p-id="1819"></path><path d="M146.93 211a20.06 20.06 0 0 0-20 20v639a20 20 0 0 0 40 0V231a20.06 20.06 0 0 0-20-20z" p-id="1820"></path><path d="M280.61 611.33H146.93a20 20 0 1 0 0 40h133.68a20 20 0 0 0 0-40zM280.61 850H146.93a20 20 0 0 0 0 40h133.68a20 20 0 1 0 0-40zM283.11 372.67H149.42a20 20 0 0 0 0 40h133.69a20 20 0 0 0 0-40z" p-id="1821"></path><path d="M392.5 920h-60.43a20.27 20.27 0 0 1-20-20v-60a20.27 20.27 0 0 1 20-20h60.43v-40h-60.43a60.18 60.18 0 0 0-60 60v60a60.18 60.18 0 0 0 60 60h60.43zM392.5 681.33h-60.43a20.27 20.27 0 0 1-20-20v-60a20.27 20.27 0 0 1 20-20h60.43V546.1c0-1.6 0.08-3.19 0.21-4.77h-60.64a60.18 60.18 0 0 0-60 60v60a60.18 60.18 0 0 0 60 60h60.43z" p-id="1822"></path></svg>