<svg t="1662742821707" class="icon" viewBox="0 0 1024 1024" version="1.1" xmlns="http://www.w3.org/2000/svg" p-id="8241" width="200" height="200"><path d="M390.8 938.4H188.2c-49.2 0-89.3-38.6-89.3-86V145c0-39.8 33.5-72.3 74.7-72.3h572.9c41.2 0 74.7 32.4 74.7 72.3v219.9c0 19.3-15.7 35-35 35s-35-15.7-35-35V145c0-0.4-1.6-2.3-4.7-2.3h-573c-3.1 0-4.7 1.8-4.7 2.3v707.4c0 8.8 8.6 16 19.3 16h202.7c19.3 0 35 15.7 35 35s-15.6 35-35 35z" p-id="8242"></path><path d="M613.9 277.6H269c-16.4 0-29.6-15.7-29.6-35s13.3-35 29.6-35h344.9c16.4 0 29.6 15.7 29.6 35s-13.3 35-29.6 35zM443.7 427.8H276.5c-19.3 0-35-15.7-35-35s15.7-35 35-35h167.2c19.3 0 35 15.7 35 35s-15.7 35-35 35zM644.4 951.3c-75 0-145.5-29.2-198.5-82.2s-82.2-123.5-82.2-198.5S393 525.1 446 472.1s123.5-82.2 198.5-82.2S790 419.1 843 472.1s82.2 123.5 82.2 198.5-29.3 145.4-82.3 198.5c-53 53-123.5 82.2-198.5 82.2z m0-491.4c-116.2 0-210.7 94.5-210.7 210.7s94.5 210.7 210.7 210.7 210.7-94.5 210.7-210.7-94.5-210.7-210.7-210.7z" p-id="8243"></path><path d="M724.2 794.5c-8 0-16-2.7-22.6-8.3l-105-88.9c-7.9-6.6-12.4-16.4-12.4-26.7V540.8c0-19.3 15.7-35 35-35s35 15.7 35 35v113.6l92.7 78.4c14.8 12.5 16.6 34.6 4.1 49.3-7 8.2-16.9 12.4-26.8 12.4z" p-id="8244"></path></svg>