<svg t="1662290444886" class="icon" viewBox="0 0 1024 1024" version="1.1" xmlns="http://www.w3.org/2000/svg" p-id="7860" width="200" height="200"><path d="M912 192H328c-4.4 0-8 3.6-8 8v56c0 4.4 3.6 8 8 8h584c4.4 0 8-3.6 8-8v-56c0-4.4-3.6-8-8-8zM912 476H328c-4.4 0-8 3.6-8 8v56c0 4.4 3.6 8 8 8h584c4.4 0 8-3.6 8-8v-56c0-4.4-3.6-8-8-8zM912 760H328c-4.4 0-8 3.6-8 8v56c0 4.4 3.6 8 8 8h584c4.4 0 8-3.6 8-8v-56c0-4.4-3.6-8-8-8z" p-id="7861"></path><path d="M160 228m-56 0a56 56 0 1 0 112 0 56 56 0 1 0-112 0Z" p-id="7862"></path><path d="M160 512m-56 0a56 56 0 1 0 112 0 56 56 0 1 0-112 0Z" p-id="7863"></path><path d="M160 796m-56 0a56 56 0 1 0 112 0 56 56 0 1 0-112 0Z" p-id="7864"></path></svg>